# Blender 3.6.0
# www.blender.org
mtllib LockerWithDoor.mtl
o M.O.C
v -0.194342 -0.802112 0.168889
v -0.194342 0.802112 0.168889
v -0.194342 -0.802112 -0.168889
v -0.194342 0.802112 -0.168889
v 0.194342 -0.802112 0.168889
v 0.194342 0.802112 0.168889
v 0.194342 -0.802112 -0.168889
v 0.194342 0.802112 -0.168889
v -0.180601 -0.745396 0.154525
v -0.180601 0.745396 0.154525
v -0.183122 -0.755802 -0.159138
v -0.183122 0.755802 -0.159138
v 0.180601 -0.745396 0.154525
v 0.180601 0.745396 0.154525
v 0.183122 -0.755802 -0.159138
v 0.183122 0.755802 -0.159138
v -0.187471 -0.763108 0.154525
v -0.187471 0.763108 0.154525
v 0.187471 -0.763108 0.154525
v 0.187471 0.763108 0.154525
v -0.183122 -0.755802 -0.159138
v -0.180601 -0.745396 0.154525
v 0.183122 -0.755802 -0.159138
v 0.180601 -0.745396 0.154525
v -0.187471 -0.763108 0.154525
v 0.187471 -0.763108 0.154525
v -0.189245 -0.773178 0.168889
v -0.189245 0.773178 0.168889
v 0.189245 -0.773178 0.168889
v 0.189245 0.773178 0.168889
v -0.187247 0.523825 0.149798
v -0.187247 0.544242 0.149798
v -0.187247 0.523825 -0.163903
v -0.187247 0.544242 -0.163903
v 0.187247 0.523825 0.149798
v 0.187247 0.544242 0.149798
v 0.187247 0.523825 -0.163903
v 0.187247 0.544242 -0.163903
v 0.185831 0.735856 0.178741
v 0.185708 -0.735600 0.178904
v 0.179370 0.763108 0.175888
v 0.179370 -0.763108 0.175888
vn -1.0000 -0.0000 -0.0000
vn -0.0000 -0.0000 -1.0000
vn 1.0000 -0.0000 -0.0000
vn -0.0000 -1.0000 -0.0000
vn -0.0000 1.0000 -0.0000
vn 1.0000 -0.0000 -0.0080
vn -0.0000 -0.0000 1.0000
vn -1.0000 -0.0000 -0.0080
vn -0.0000 0.9781 0.2081
vn -0.0000 0.9999 -0.0111
vn -0.0000 -0.9995 -0.0332
vn -0.0000 0.9999 -0.0110
vn -0.0000 0.8188 0.5740
vn -0.9925 -0.0000 0.1226
vn 0.9925 -0.0000 0.1226
vn -0.0000 -0.8188 0.5740
vn -0.4168 0.0001 0.9090
vt 0.876400 0.008959
vt 0.876400 0.587331
vt 0.754621 0.587331
vt 0.754621 0.008959
vt 0.618811 0.010348
vt 0.618811 0.573948
vt 0.482258 0.573948
vt 0.482258 0.010348
vt 0.749022 0.009734
vt 0.749022 0.588106
vt 0.627243 0.588106
vt 0.627243 0.009734
vt 0.869337 0.972833
vt 0.732924 0.973491
vt 0.732352 0.854944
vt 0.868765 0.854286
vt 0.871014 0.972825
vt 0.870356 0.836412
vt 0.988903 0.835840
vt 0.989561 0.972253
vt 0.373882 0.013032
vt 0.471679 0.009788
vt 0.471679 0.481076
vt 0.373882 0.477832
vt 0.257918 0.008701
vt 0.368017 0.009371
vt 0.365250 0.463783
vt 0.255151 0.463112
vt 0.992622 0.552946
vt 0.879739 0.549201
vt 0.879739 0.012704
vt 0.992622 0.008959
vt 0.221150 0.024981
vt 0.215083 0.040379
vt 0.214814 0.040273
vt 0.220880 0.024877
vt 0.992817 0.646292
vt 0.992468 0.754946
vt 0.867420 0.755549
vt 0.866023 0.646903
vt 0.026476 0.016026
vt 0.025183 0.674511
vt 0.014210 0.667196
vt 0.015059 0.045287
vt 0.219323 0.371928
vt 0.213555 0.368054
vt 0.204752 0.327883
vt 0.205249 0.109492
vt 0.209061 0.109500
vt 0.208563 0.327892
vt 0.227832 0.009734
vt 0.221844 0.025331
vt 0.227082 0.009530
vt 0.086169 0.012934
vt 0.086169 0.645668
vt 0.075258 0.641639
vt 0.075198 0.020568
vt 0.099796 0.012934
vt 0.099795 0.645668
vt 0.088884 0.641639
vt 0.088824 0.020568
vt 0.730415 0.773834
vt 0.730764 0.665180
vt 0.855812 0.664577
vt 0.857208 0.773222
vt 0.180604 0.223837
vt 0.180604 0.432085
vt 0.170767 0.428269
vt 0.170767 0.227653
vt 0.214152 0.030828
vt 0.221635 0.016064
vt 0.221893 0.016194
vt 0.214410 0.030957
vt 0.226812 0.009427
vt 0.239964 0.096848
vt 0.237799 0.351620
vt 0.233353 0.351582
vt 0.235517 0.096810
vt 0.229368 0.137433
vt 0.228700 0.355824
vt 0.224889 0.355812
vt 0.225557 0.137421
vt 0.158618 0.012934
vt 0.158617 0.412014
vt 0.152319 0.405459
vt 0.151778 0.051758
vt 0.168112 0.012934
vt 0.168112 0.412014
vt 0.161813 0.405459
vt 0.161272 0.051758
vt 0.118520 0.444341
vt 0.118520 0.660221
vt 0.102451 0.657390
vt 0.102450 0.447172
vt 0.118520 0.225806
vt 0.118520 0.441686
vt 0.102451 0.438855
vt 0.102450 0.228637
vt 0.170767 0.012934
vt 0.180604 0.016750
vt 0.180604 0.217366
vt 0.170767 0.221182
vt 0.424402 0.481831
vt 0.434372 0.482905
vt 0.432993 0.696138
vt 0.423010 0.697083
vt 0.359516 0.473122
vt 0.359379 0.483707
vt 0.165231 0.481193
vt 0.165368 0.470608
vt 0.598601 0.668786
vt 0.728250 0.668160
vt 0.728774 0.776764
vt 0.599125 0.777389
vt 0.731246 0.973499
vt 0.599814 0.974133
vt 0.599283 0.864036
vt 0.730715 0.863402
vt 0.029928 0.642365
vt 0.029426 0.147230
vt 0.039142 0.111606
vt 0.039194 0.652182
s 1
usemtl M.O.C
f 1/1/1 2/2/1 4/3/1 3/4/1
f 3/5/2 4/6/2 8/7/2 7/8/2
f 7/9/3 8/10/3 6/11/3 5/12/3
f 3/13/4 7/14/4 5/15/4 1/16/4
f 8/17/5 4/18/5 2/19/5 6/20/5
f 9/21/6 11/22/6 12/23/6 10/24/6
f 11/25/7 15/26/7 16/27/7 12/28/7
f 15/29/8 13/30/8 14/31/8 16/32/8
f 19/33/9 13/34/5 24/35/10 26/36/5
f 16/37/11 14/38/11 10/39/11 12/40/11
f 18/41/7 17/42/7 9/43/7 10/44/7
f 19/33/7 20/45/7 14/46/7 13/34/7
f 13/47/5 15/48/5 23/49/12 24/50/10
f 27/51/13 29/52/13 19/33/9 17/53/9
f 29/54/14 30/55/14 20/56/14 19/57/14
f 28/58/15 27/59/15 17/60/15 18/61/15
f 21/62/12 22/63/10 24/64/10 23/65/12
f 25/66/7 26/67/7 24/68/7 22/69/7
f 9/70/5 17/71/9 25/72/5 22/73/10
f 17/53/9 19/33/9 26/36/5 25/74/5
f 15/75/5 11/76/5 21/77/12 23/78/12
f 11/79/5 9/80/5 22/81/10 21/82/12
f 2/83/7 1/84/7 27/85/7 28/86/7
f 5/87/7 6/88/7 30/89/7 29/90/7
f 1/91/7 5/92/7 29/93/7 27/94/7
f 6/95/7 2/96/7 28/97/7 30/98/7
f 18/99/7 10/100/7 14/101/7 20/102/7
f 28/103/16 18/104/16 20/105/16 30/106/16
f 35/107/7 36/108/7 32/109/7 31/110/7
f 33/111/4 37/112/4 35/113/4 31/114/4
f 38/115/5 34/116/5 32/117/5 36/118/5
f 40/119/17 39/120/17 41/121/17 42/122/17
o M.O.C.001
v 0.443268 0.622780 0.358232
v 0.444832 0.624588 0.356211
v 0.433974 0.644235 0.370240
v 0.435538 0.646044 0.368220
v 0.233184 0.622780 0.195636
v 0.234748 0.624588 0.193615
v 0.223890 0.644235 0.207644
v 0.225453 0.646044 0.205624
v 0.443268 0.518121 0.358232
v 0.444832 0.519929 0.356211
v 0.433974 0.539577 0.370240
v 0.435538 0.541385 0.368220
v 0.233184 0.518121 0.195636
v 0.234747 0.519929 0.193615
v 0.223890 0.539577 0.207644
v 0.225453 0.541385 0.205624
v 0.443268 0.544076 0.358232
v 0.444832 0.545885 0.356211
v 0.433974 0.565532 0.370240
v 0.435538 0.567340 0.368220
v 0.233184 0.544076 0.195636
v 0.234747 0.545885 0.193615
v 0.223890 0.565532 0.207644
v 0.225453 0.567340 0.205624
v 0.443268 0.570590 0.358232
v 0.444832 0.572398 0.356211
v 0.433974 0.592046 0.370240
v 0.435538 0.593854 0.368220
v 0.233184 0.570590 0.195636
v 0.234747 0.572398 0.193615
v 0.223890 0.592046 0.207644
v 0.225453 0.593854 0.205624
v 0.443268 0.597382 0.358232
v 0.444832 0.599191 0.356211
v 0.433974 0.618838 0.370240
v 0.435538 0.620647 0.368220
v 0.233184 0.597382 0.195636
v 0.234747 0.599191 0.193615
v 0.223890 0.618838 0.207644
v 0.225453 0.620647 0.205624
v 0.473197 0.733701 0.397918
v 0.185831 0.735856 0.178741
v 0.471384 -0.735534 0.400003
v 0.185708 -0.735600 0.178904
v 0.477943 -0.735938 0.397461
v 0.478069 0.736508 0.397525
v 0.187862 -0.735938 0.172951
v 0.187998 0.736956 0.172895
v 0.477702 0.760331 0.403537
v 0.179370 0.763108 0.175888
v 0.475880 -0.763108 0.405374
v 0.179370 -0.763108 0.175888
v 0.486075 -0.773178 0.395100
v 0.486075 0.773178 0.395100
v 0.186759 -0.773178 0.163443
v 0.186759 0.773178 0.163443
v 0.437967 0.519925 0.366475
v 0.227927 0.519925 0.203823
v 0.231374 0.519925 0.197973
v 0.441459 0.519925 0.360569
v 0.441459 0.646507 0.360569
v 0.231374 0.646507 0.197973
v 0.461818 -0.016365 0.392175
v 0.463359 -0.011808 0.390183
v 0.473084 -0.016365 0.377618
v 0.471542 -0.011808 0.379610
v 0.456573 -0.018520 0.388115
v 0.455996 -0.014833 0.384484
v 0.467839 -0.018520 0.373559
v 0.464179 -0.014833 0.373911
v 0.453331 -0.024162 0.385607
v 0.451445 -0.022754 0.380962
v 0.464597 -0.024162 0.371050
v 0.459628 -0.022754 0.370389
v 0.453331 -0.031136 0.385607
v 0.451445 -0.032544 0.380962
v 0.464597 -0.031136 0.371050
v 0.459628 -0.032544 0.370389
v 0.456573 -0.036777 0.388115
v 0.455996 -0.040464 0.384484
v 0.467839 -0.036777 0.373559
v 0.464179 -0.040464 0.373911
v 0.461818 -0.038932 0.392175
v 0.463359 -0.043490 0.390183
v 0.473084 -0.038932 0.377618
v 0.471542 -0.043490 0.379610
v 0.467062 -0.036777 0.396234
v 0.470722 -0.040464 0.395882
v 0.478329 -0.036777 0.381677
v 0.478906 -0.040464 0.385309
v 0.470304 -0.031136 0.398743
v 0.475273 -0.032544 0.399404
v 0.481570 -0.031136 0.384186
v 0.483457 -0.032544 0.388831
v 0.470304 -0.024162 0.398743
v 0.475273 -0.022754 0.399404
v 0.481570 -0.024162 0.384186
v 0.483457 -0.022754 0.388831
v 0.467062 -0.018520 0.396234
v 0.470722 -0.014833 0.395882
v 0.478329 -0.018520 0.381677
v 0.478906 -0.014833 0.385309
vn 0.7908 -0.0000 0.6120
vn -0.3536 0.8162 0.4569
vn -0.7908 -0.0000 -0.6121
vn 0.3536 -0.8163 -0.4568
vn -0.4996 -0.5777 0.6455
vn 0.4996 0.5777 -0.6455
vn 0.7908 -0.0000 0.6121
vn -0.3536 0.8163 0.4568
vn 0.3536 -0.8162 -0.4569
vn 0.3536 -0.8163 -0.4569
vn -0.3536 0.8163 0.4569
vn 0.9390 -0.0001 0.3439
vn -0.2487 -0.0005 -0.9686
vn 0.0376 0.9981 -0.0487
vn 0.2351 -0.9208 -0.3113
vn -0.6088 0.0132 0.7932
vn -0.6101 0.0209 0.7921
vn -0.6140 0.0213 0.7890
vn -0.6156 0.0131 0.7880
vn -0.6082 -0.0011 0.7938
vn -0.6120 -0.0000 0.7909
vn -0.8599 -0.0000 -0.5105
vn 0.7098 -0.0000 0.7044
vn -0.3513 -0.8188 0.4540
vn -0.3993 0.7522 0.5241
vn 0.6121 -0.0000 -0.7908
vn -0.7155 0.0221 0.6982
vn -0.6112 0.0542 0.7897
vn -0.6390 0.0461 0.7678
vn -0.7134 -0.0234 0.7004
vn -0.6362 -0.0522 0.7698
vn -0.6057 -0.0627 0.7932
vn -0.8213 -0.0040 -0.5704
vn 0.8215 0.0040 0.5702
vn -0.0000 1.0000 -0.0000
vn 0.0293 -0.9989 -0.0379
vn -0.6123 -0.0000 0.7906
vn -0.6162 -0.0011 0.7876
vn 0.4648 0.8090 0.3598
vn -0.7521 0.3090 -0.5821
vn -0.7521 -0.3090 -0.5821
vn -0.4648 -0.8090 -0.3598
vn -0.0000 -1.0000 -0.0000
vn 0.4648 -0.8090 0.3598
vn 0.7521 -0.3090 0.5821
vn 0.7521 0.3090 0.5821
vn -0.4648 0.8090 -0.3598
vn 0.7220 -0.2389 -0.6493
vn 0.7220 0.2389 -0.6493
vn 0.8068 0.0912 -0.5837
vn 0.8068 -0.0912 -0.5837
vn -0.5357 0.4836 0.6922
vn -0.7605 0.3913 0.5182
vn -0.7220 0.2389 0.6493
vn -0.5848 0.2953 0.7555
vn 0.3109 0.3913 -0.8662
vn 0.5357 0.4836 -0.6922
vn 0.5848 0.2953 -0.7556
vn 0.4475 0.2389 -0.8618
vn -0.8995 0.1495 0.4107
vn -0.8068 0.0912 0.5837
vn 0.1720 0.1495 -0.9737
vn 0.3627 0.0912 -0.9274
vn -0.8995 -0.1495 0.4107
vn -0.8068 -0.0912 0.5837
vn 0.1720 -0.1495 -0.9737
vn 0.3627 -0.0912 -0.9274
vn -0.7605 -0.3913 0.5182
vn -0.7220 -0.2389 0.6493
vn 0.3109 -0.3913 -0.8662
vn 0.4475 -0.2389 -0.8618
vn -0.5357 -0.4836 0.6922
vn -0.5848 -0.2953 0.7555
vn 0.5357 -0.4836 -0.6922
vn 0.5848 -0.2953 -0.7556
vn -0.3109 -0.3913 0.8662
vn -0.4475 -0.2389 0.8618
vn 0.7605 -0.3913 -0.5182
vn -0.1720 -0.1494 0.9737
vn -0.3627 -0.0912 0.9274
vn 0.8995 -0.1495 -0.4107
vn -0.1720 0.1495 0.9737
vn -0.3627 0.0912 0.9274
vn 0.8995 0.1495 -0.4107
vn -0.3109 0.3913 0.8662
vn -0.4475 0.2389 0.8618
vn 0.7605 0.3913 -0.5182
vt 0.580464 0.640612
vt 0.580464 0.645366
vt 0.540544 0.645366
vt 0.540544 0.640612
vt 0.197232 0.162207
vt 0.199888 0.162193
vt 0.201559 0.314350
vt 0.198904 0.314364
vt 0.542662 0.579816
vt 0.547779 0.579815
vt 0.547779 0.622792
vt 0.542662 0.622792
vt 0.275726 0.492647
vt 0.278780 0.492678
vt 0.277988 0.667658
vt 0.274934 0.667627
vt 0.359775 0.494051
vt 0.358932 0.673456
vt 0.341180 0.673373
vt 0.342024 0.493968
vt 0.296093 0.492756
vt 0.295302 0.667737
vt 0.560417 0.692774
vt 0.555663 0.692774
vt 0.555663 0.652855
vt 0.560417 0.652855
vt 0.223322 0.492410
vt 0.226317 0.492440
vt 0.225541 0.664077
vt 0.222546 0.664047
vt 0.543650 0.652855
vt 0.548404 0.652855
vt 0.548404 0.692774
vt 0.543650 0.692774
vt 0.245519 0.664184
vt 0.242524 0.664154
vt 0.243300 0.492517
vt 0.246296 0.492548
vt 0.317073 0.492834
vt 0.316262 0.672239
vt 0.298510 0.672158
vt 0.299321 0.492754
vt 0.572429 0.692774
vt 0.567676 0.692774
vt 0.567676 0.652855
vt 0.572429 0.652855
vt 0.197120 0.492291
vt 0.200115 0.492322
vt 0.199339 0.663959
vt 0.196343 0.663928
vt 0.579976 0.580003
vt 0.585093 0.580003
vt 0.585093 0.622980
vt 0.579976 0.622980
vt 0.219317 0.664066
vt 0.216322 0.664035
vt 0.217098 0.492399
vt 0.220094 0.492429
vt 0.150336 0.667672
vt 0.151361 0.488269
vt 0.169112 0.488371
vt 0.168087 0.667774
vt 0.572160 0.622980
vt 0.567043 0.622980
vt 0.567043 0.580003
vt 0.572160 0.580003
vt 0.271721 0.664303
vt 0.268725 0.664272
vt 0.269502 0.492636
vt 0.272498 0.492666
vt 0.598027 0.622980
vt 0.592909 0.622980
vt 0.592909 0.580003
vt 0.598027 0.580003
vt 0.249524 0.492528
vt 0.252519 0.492559
vt 0.251743 0.664195
vt 0.248747 0.664165
vt 0.380754 0.494150
vt 0.379911 0.673555
vt 0.362160 0.673471
vt 0.363003 0.494067
vt 0.610960 0.622980
vt 0.605842 0.622980
vt 0.605842 0.580003
vt 0.610960 0.580003
vt 0.193115 0.663947
vt 0.190119 0.663917
vt 0.190896 0.492280
vt 0.193892 0.492311
vt 0.555595 0.579815
vt 0.560712 0.579815
vt 0.560712 0.622793
vt 0.555595 0.622793
vt 0.170918 0.492173
vt 0.173913 0.492203
vt 0.173137 0.663840
vt 0.170141 0.663809
vt 0.338053 0.492929
vt 0.337241 0.672333
vt 0.319489 0.672253
vt 0.320301 0.492849
vt 0.138508 0.505651
vt 0.130121 0.501678
vt 0.129983 0.025179
vt 0.138508 0.012934
vt 0.149124 0.012934
vt 0.149124 0.473404
vt 0.141390 0.469589
vt 0.141163 0.030457
vt 0.455992 0.692314
vt 0.447135 0.693843
vt 0.448327 0.485230
vt 0.457134 0.486869
vt 0.436888 0.485127
vt 0.445600 0.486727
vt 0.444280 0.692271
vt 0.435696 0.693778
vt 0.047129 0.817762
vt 0.007736 0.836905
vt 0.009202 0.695154
vt 0.048316 0.715123
vt 0.096036 0.818328
vt 0.585903 0.843538
vt 0.051404 0.104962
vt 0.051404 0.655690
vt 0.041907 0.652182
vt 0.041854 0.111606
vt 0.072543 0.645668
vt 0.063185 0.641110
vt 0.063133 0.111375
vt 0.072543 0.104962
vt 0.410322 0.695992
vt 0.411701 0.482758
vt 0.421684 0.481813
vt 0.420292 0.697065
vt 0.127329 0.012934
vt 0.127329 0.223152
vt 0.117585 0.222166
vt 0.117640 0.013733
vt 0.508739 0.871417
vt 0.009216 0.846955
vt 0.606712 0.850139
vt 0.557651 0.871678
vt 0.749415 0.663435
vt 0.729672 0.619676
vt 0.860705 0.619044
vt 0.841385 0.662992
vt 0.391566 0.691999
vt 0.392932 0.486557
vt 0.408625 0.482758
vt 0.407246 0.695992
vt 0.054553 0.632348
vt 0.054059 0.147137
vt 0.102450 0.218236
vt 0.102789 0.017502
vt 0.123609 0.297826
vt 0.121175 0.297823
vt 0.121253 0.225806
vt 0.123686 0.225809
vt 0.531419 0.634107
vt 0.531419 0.629056
vt 0.683558 0.629052
vt 0.683558 0.634107
vt 0.123686 0.437280
vt 0.121252 0.437278
vt 0.193626 0.137340
vt 0.195572 0.314411
vt 0.192481 0.314450
vt 0.190536 0.137379
vt 0.587542 0.701812
vt 0.097223 0.715688
vt 0.508192 0.974063
vt 0.008437 0.993199
vt 0.557103 0.974324
vt 0.605932 0.996384
vt 0.462217 0.658036
vt 0.487448 0.658036
vt 0.487448 0.676512
vt 0.462217 0.676512
vt 0.493821 0.621792
vt 0.519053 0.621792
vt 0.519053 0.640268
vt 0.493821 0.640268
vt 0.519053 0.658743
vt 0.493821 0.658743
vt 0.519053 0.677219
vt 0.493821 0.677219
vt 0.462217 0.584134
vt 0.487449 0.584134
vt 0.487449 0.602610
vt 0.462217 0.602610
vt 0.487449 0.621085
vt 0.462217 0.621085
vt 0.487449 0.639561
vt 0.462217 0.639561
vt 0.493821 0.603316
vt 0.519053 0.603317
vt 0.944934 0.573719
vt 0.901281 0.588057
vt 0.911436 0.573661
vt 0.928204 0.568203
vt 0.493821 0.584841
vt 0.519053 0.584841
vt 0.693933 0.789215
vt 0.707868 0.808452
vt 0.696072 0.812412
vt 0.686669 0.799292
vt 0.903577 0.631204
vt 0.888202 0.610138
vt 0.901166 0.605783
vt 0.911450 0.620163
vt 0.707868 0.832297
vt 0.695959 0.828518
vt 0.928122 0.639178
vt 0.928152 0.625733
vt 0.693631 0.851653
vt 0.686359 0.841412
vt 0.952763 0.631329
vt 0.944892 0.620223
vt 0.670808 0.858568
vt 0.670984 0.846208
vt 0.968286 0.610135
vt 0.955112 0.605860
vt 0.648411 0.850955
vt 0.655724 0.840917
vt 0.968286 0.583726
vt 0.955264 0.588104
vt 0.634546 0.831618
vt 0.646406 0.827716
vt 0.952812 0.562575
vt 0.634649 0.807672
vt 0.646530 0.811636
vt 0.927993 0.554645
vt 0.648958 0.788670
vt 0.656069 0.798719
vt 0.903442 0.562784
vt 0.671457 0.781692
vt 0.671430 0.794053
vt 0.888174 0.583863
s 1
usemtl M.O.C
f 43/123/18 44/124/18 46/125/18 45/126/18
f 45/127/19 46/128/19 50/129/19 49/130/19
f 49/131/20 50/132/20 48/133/20 47/134/20
f 47/135/21 48/136/21 44/137/21 43/138/21
f 45/139/22 49/140/22 47/141/22 43/142/22
f 50/143/23 46/144/23 44/137/23 48/136/23
f 51/145/24 52/146/24 54/147/24 53/148/24
f 53/149/25 54/150/25 58/151/25 57/152/25
f 57/153/20 58/154/20 56/155/20 55/156/20
f 55/157/26 56/158/26 52/159/26 51/160/26
f 53/161/22 57/162/22 55/163/22 51/164/22
f 58/151/23 54/150/23 52/159/23 56/158/23
f 59/165/24 60/166/24 62/167/24 61/168/24
f 61/169/25 62/170/25 66/171/25 65/172/25
f 65/173/20 66/174/20 64/175/20 63/176/20
f 63/177/27 64/178/27 60/179/27 59/180/27
f 61/181/22 65/182/22 63/183/22 59/184/22
f 66/171/23 62/170/23 60/179/23 64/178/23
f 67/185/24 68/186/24 70/187/24 69/188/24
f 69/189/25 70/190/25 74/191/25 73/192/25
f 73/193/20 74/194/20 72/195/20 71/196/20
f 71/197/21 72/198/21 68/199/21 67/200/21
f 69/201/22 73/202/22 71/203/22 67/204/22
f 74/191/23 70/190/23 68/199/23 72/198/23
f 75/205/24 76/206/24 78/207/24 77/208/24
f 77/209/28 78/210/28 82/211/28 81/212/28
f 81/213/20 82/214/20 80/215/20 79/216/20
f 79/217/21 80/218/21 76/219/21 75/220/21
f 77/221/22 81/222/22 79/223/22 75/224/22
f 82/211/23 78/210/23 76/219/23 80/218/23
f 90/225/29 84/226/29 86/227/29 89/228/29
f 88/229/30 87/230/30 85/231/30 83/232/30
f 85/233/31 87/234/31 89/235/31 86/236/31
f 88/237/32 83/238/32 84/239/32 90/240/32
f 46/241/33 88/242/34 90/243/35 50/244/36
f 99/245/37 87/246/38 88/242/34 46/241/33
f 98/247/39 97/248/39 94/249/39 92/250/39
f 96/251/40 91/252/40 93/253/40 95/254/40
f 93/255/41 94/256/41 97/257/41 95/258/41
f 96/259/42 98/260/42 92/261/42 91/262/42
f 101/263/43 97/264/43 98/265/43 104/266/43
f 104/267/43 98/268/43 96/269/43 103/270/43
f 85/271/44 86/272/45 94/273/45 93/274/46
f 83/275/47 85/276/44 93/253/46 91/252/48
f 84/277/49 83/278/47 91/262/48 92/261/49
f 102/279/50 99/280/50 46/281/50 103/282/50
f 104/283/51 50/284/51 100/285/51 101/286/51
f 101/287/52 100/288/52 99/280/52 102/279/52
f 46/289/53 50/290/53 104/291/53 103/292/53
f 50/244/36 90/243/35 89/293/54 100/294/55
f 100/294/55 89/293/54 87/246/38 99/245/37
f 102/295/43 95/296/43 97/264/43 101/263/43
f 103/297/43 96/298/43 95/296/43 102/295/43
f 142/299/56 144/300/56 108/301/52 106/302/52
f 114/303/57 116/304/57 120/305/58 118/306/58
f 118/306/58 120/305/58 124/307/59 122/308/59
f 122/308/59 124/307/59 128/309/60 126/310/60
f 126/311/60 128/312/60 132/313/61 130/314/61
f 130/314/61 132/313/61 136/315/62 134/316/62
f 134/316/62 136/315/62 140/317/63 138/318/63
f 138/318/63 140/317/63 144/300/56 142/299/56
f 110/319/64 112/320/64 116/304/57 114/303/57
f 131/321/65 143/322/66 139/323/67 135/324/68
f 106/325/52 108/326/52 112/320/64 110/319/64
f 106/327/69 110/328/70 109/329/71 105/330/72
f 112/331/73 108/332/74 107/333/75 111/334/76
f 110/328/70 114/335/77 113/336/78 109/329/71
f 116/337/79 112/331/73 111/334/76 115/338/80
f 114/335/77 118/339/81 117/340/82 113/336/78
f 120/341/83 116/337/79 115/338/80 119/342/84
f 118/339/81 122/343/85 121/344/86 117/340/82
f 124/345/87 120/341/83 119/342/84 123/346/88
f 122/343/85 126/347/89 125/348/90 121/344/86
f 128/349/91 124/345/87 123/346/88 127/350/92
f 126/347/89 130/351/93 129/352/94 125/348/90
f 132/353/95 128/349/91 127/350/92 131/321/65
f 130/351/93 134/354/96 133/355/97 129/352/94
f 136/356/98 132/353/95 131/321/65 135/324/68
f 134/354/96 138/357/99 137/358/100 133/355/97
f 140/359/101 136/356/98 135/324/68 139/323/67
f 138/357/99 142/360/102 141/361/103 137/358/100
f 144/362/104 140/359/101 139/323/67 143/322/66
f 142/360/102 106/327/69 105/330/72 141/361/103
f 108/332/74 144/362/104 143/322/66 107/333/75
f 109/329/71 113/336/78 117/340/82 121/344/86
f 107/333/75 143/322/66 131/321/65 127/350/92
f 111/334/76 107/333/75 127/350/92 123/346/88
f 115/338/80 111/334/76 123/346/88 119/342/84
f 105/330/72 109/329/71 121/344/86 125/348/90
f 141/361/103 105/330/72 125/348/90 129/352/94
f 137/358/100 141/361/103 129/352/94 133/355/97
